<svg xmlns="http://www.w3.org/2000/svg" width="980" height="512" viewBox="0 0 980 512">
<rect width="100%" height="100%" fill="#ffffff"/>
<text x="24" y="34" font-family="Arial, sans-serif" font-size="22" font-weight="700" fill="#1f2933">Mini-eval perplexity by run</text>
<text x="24" y="54" font-family="Arial, sans-serif" font-size="12" fill="#52606d">Lower is better</text>
<text x="24" y="81" font-family="Arial, sans-serif" font-size="13" fill="#243b53">v1_tiny_base</text>
<rect x="210" y="64" width="114.7" height="24" rx="3" fill="#2f6f9f"/>
<text x="332.7" y="81" font-family="Arial, sans-serif" font-size="13" fill="#102a43">3.314</text>
<text x="24" y="117" font-family="Arial, sans-serif" font-size="13" fill="#243b53">v1_dense35</text>
<rect x="210" y="100" width="95.4" height="24" rx="3" fill="#d95f59"/>
<text x="313.4" y="117" font-family="Arial, sans-serif" font-size="13" fill="#102a43">2.757</text>
<text x="24" y="153" font-family="Arial, sans-serif" font-size="13" fill="#243b53">v1_dense115</text>
<rect x="210" y="136" width="181.7" height="24" rx="3" fill="#5f8f3f"/>
<text x="399.7" y="153" font-family="Arial, sans-serif" font-size="13" fill="#102a43">5.25</text>
<text x="24" y="189" font-family="Arial, sans-serif" font-size="13" fill="#243b53">v1_sweep_bs16_lr3e-4</text>
<rect x="210" y="172" width="66.7" height="24" rx="3" fill="#9b6fb3"/>
<text x="284.7" y="189" font-family="Arial, sans-serif" font-size="13" fill="#102a43">1.927</text>
<text x="24" y="225" font-family="Arial, sans-serif" font-size="13" fill="#243b53">v1_sweep_bs16_lr6e-4</text>
<rect x="210" y="208" width="67.4" height="24" rx="3" fill="#d18b2c"/>
<text x="285.4" y="225" font-family="Arial, sans-serif" font-size="13" fill="#102a43">1.948</text>
<text x="24" y="261" font-family="Arial, sans-serif" font-size="13" fill="#243b53">v1_sweep_bs32_lr3e-4</text>
<rect x="210" y="244" width="69.8" height="24" rx="3" fill="#4c7c7b"/>
<text x="287.8" y="261" font-family="Arial, sans-serif" font-size="13" fill="#102a43">2.016</text>
<text x="24" y="297" font-family="Arial, sans-serif" font-size="13" fill="#243b53">v1_sweep_bs32_lr6e-4</text>
<rect x="210" y="280" width="69.5" height="24" rx="3" fill="#2f6f9f"/>
<text x="287.5" y="297" font-family="Arial, sans-serif" font-size="13" fill="#102a43">2.009</text>
<text x="24" y="333" font-family="Arial, sans-serif" font-size="13" fill="#243b53">v1_moe_activated35</text>
<rect x="210" y="316" width="189.6" height="24" rx="3" fill="#d95f59"/>
<text x="407.6" y="333" font-family="Arial, sans-serif" font-size="13" fill="#102a43">5.479</text>
<text x="24" y="369" font-family="Arial, sans-serif" font-size="13" fill="#243b53">v1_tiny_mla</text>
<rect x="210" y="352" width="182.5" height="24" rx="3" fill="#5f8f3f"/>
<text x="400.5" y="369" font-family="Arial, sans-serif" font-size="13" fill="#102a43">5.274</text>
<text x="24" y="405" font-family="Arial, sans-serif" font-size="13" fill="#243b53">v1_tiny_sft</text>
<rect x="210" y="388" width="591.6" height="24" rx="3" fill="#9b6fb3"/>
<text x="809.6" y="405" font-family="Arial, sans-serif" font-size="13" fill="#102a43">17.09</text>
<text x="24" y="441" font-family="Arial, sans-serif" font-size="13" fill="#243b53">v1_tiny_grpo</text>
<rect x="210" y="424" width="636.0" height="24" rx="3" fill="#d18b2c"/>
<text x="854.0" y="441" font-family="Arial, sans-serif" font-size="13" fill="#102a43">18.38</text>
</svg>
