<svg xmlns="http://www.w3.org/2000/svg" width="760" height="440" viewBox="0 0 760 440">
<rect width="100%" height="100%" fill="#ffffff"/>
<text x="24" y="34" font-family="Arial, sans-serif" font-size="22" font-weight="700" fill="#1f2933">VRAM vs mini-eval PPL</text>
<line x1="72" y1="370" x2="724" y2="370" stroke="#9fb3c8"/>
<line x1="72" y1="58" x2="72" y2="370" stroke="#9fb3c8"/>
<text x="310.0" y="418" font-family="Arial, sans-serif" font-size="13" fill="#334e68">Peak allocated VRAM (GB)</text>
<text x="18" y="46" font-family="Arial, sans-serif" font-size="13" fill="#334e68">PPL</text>
<line x1="72.0" y1="370" x2="72.0" y2="375" stroke="#9fb3c8"/>
<text x="58.0" y="392" font-family="Arial, sans-serif" font-size="11" fill="#52606d">0.1</text>
<line x1="235.0" y1="370" x2="235.0" y2="375" stroke="#9fb3c8"/>
<text x="221.0" y="392" font-family="Arial, sans-serif" font-size="11" fill="#52606d">1.5</text>
<line x1="398.0" y1="370" x2="398.0" y2="375" stroke="#9fb3c8"/>
<text x="384.0" y="392" font-family="Arial, sans-serif" font-size="11" fill="#52606d">2.8</text>
<line x1="561.0" y1="370" x2="561.0" y2="375" stroke="#9fb3c8"/>
<text x="547.0" y="392" font-family="Arial, sans-serif" font-size="11" fill="#52606d">4.1</text>
<line x1="724.0" y1="370" x2="724.0" y2="375" stroke="#9fb3c8"/>
<text x="710.0" y="392" font-family="Arial, sans-serif" font-size="11" fill="#52606d">5.5</text>
<line x1="67" y1="370.0" x2="72" y2="370.0" stroke="#9fb3c8"/>
<text x="28" y="374.0" font-family="Arial, sans-serif" font-size="11" fill="#52606d">1.9</text>
<line x1="67" y1="292.0" x2="72" y2="292.0" stroke="#9fb3c8"/>
<text x="28" y="296.0" font-family="Arial, sans-serif" font-size="11" fill="#52606d">6.0</text>
<line x1="67" y1="214.0" x2="72" y2="214.0" stroke="#9fb3c8"/>
<text x="28" y="218.0" font-family="Arial, sans-serif" font-size="11" fill="#52606d">10.2</text>
<line x1="67" y1="136.0" x2="72" y2="136.0" stroke="#9fb3c8"/>
<text x="28" y="140.0" font-family="Arial, sans-serif" font-size="11" fill="#52606d">14.3</text>
<line x1="67" y1="58.0" x2="72" y2="58.0" stroke="#9fb3c8"/>
<text x="28" y="62.0" font-family="Arial, sans-serif" font-size="11" fill="#52606d">18.4</text>
<circle cx="80.9" cy="343.7" r="6" fill="#2f6f9f"/>
<text x="89.9" y="335.7" font-family="Arial, sans-serif" font-size="11" fill="#102a43">v1_tiny_base</text>
<circle cx="377.9" cy="354.3" r="6" fill="#d95f59"/>
<text x="386.9" y="346.3" font-family="Arial, sans-serif" font-size="11" fill="#102a43">v1_dense35</text>
<circle cx="538.7" cy="307.0" r="6" fill="#5f8f3f"/>
<text x="547.7" y="299.0" font-family="Arial, sans-serif" font-size="11" fill="#102a43">v1_dense115</text>
<circle cx="244.3" cy="370.0" r="6" fill="#9b6fb3"/>
<text x="253.3" y="362.0" font-family="Arial, sans-serif" font-size="11" fill="#102a43">v1_sweep_bs16_lr3e-4</text>
<circle cx="244.3" cy="369.6" r="6" fill="#d18b2c"/>
<text x="253.3" y="361.6" font-family="Arial, sans-serif" font-size="11" fill="#102a43">v1_sweep_bs16_lr6e-4</text>
<circle cx="377.9" cy="368.3" r="6" fill="#4c7c7b"/>
<text x="386.9" y="360.3" font-family="Arial, sans-serif" font-size="11" fill="#102a43">v1_sweep_bs32_lr3e-4</text>
<circle cx="377.9" cy="368.4" r="6" fill="#2f6f9f"/>
<text x="386.9" y="360.4" font-family="Arial, sans-serif" font-size="11" fill="#102a43">v1_sweep_bs32_lr6e-4</text>
<circle cx="724.0" cy="302.6" r="6" fill="#d95f59"/>
<text x="733.0" y="294.6" font-family="Arial, sans-serif" font-size="11" fill="#102a43">v1_moe_activated35</text>
<circle cx="80.9" cy="306.5" r="6" fill="#5f8f3f"/>
<text x="89.9" y="298.5" font-family="Arial, sans-serif" font-size="11" fill="#102a43">v1_tiny_mla</text>
<circle cx="73.1" cy="82.3" r="6" fill="#9b6fb3"/>
<text x="82.1" y="74.3" font-family="Arial, sans-serif" font-size="11" fill="#102a43">v1_tiny_sft</text>
<circle cx="72.0" cy="58.0" r="6" fill="#d18b2c"/>
<text x="81.0" y="50.0" font-family="Arial, sans-serif" font-size="11" fill="#102a43">v1_tiny_grpo</text>
</svg>
