<svg xmlns="http://www.w3.org/2000/svg" width="1040" height="610" viewBox="0 0 1040 610">
<rect width="100%" height="100%" fill="#ffffff"/>
<text x="22" y="32" font-family="Arial,sans-serif" font-size="21" font-weight="700" fill="#172b36">Validation perplexity by architecture</text>
<text x="22" y="74" font-family="Arial,sans-serif" font-size="12" fill="#29434e">arch_dense_gqa</text>
<rect x="260" y="58" width="572.6" height="22" rx="3" fill="#276678"/>
<text x="840.6" y="74" font-family="Arial,sans-serif" font-size="12" fill="#172b36">2.006</text>
<text x="22" y="106" font-family="Arial,sans-serif" font-size="12" fill="#29434e">arch_dense_mha</text>
<rect x="260" y="90" width="575.7" height="22" rx="3" fill="#d97745"/>
<text x="843.7" y="106" font-family="Arial,sans-serif" font-size="12" fill="#172b36">2.017</text>
<text x="22" y="138" font-family="Arial,sans-serif" font-size="12" fill="#29434e">arch_moe_aux</text>
<rect x="260" y="122" width="573.6" height="22" rx="3" fill="#568259"/>
<text x="841.6" y="138" font-family="Arial,sans-serif" font-size="12" fill="#172b36">2.009</text>
<text x="22" y="170" font-family="Arial,sans-serif" font-size="12" fill="#29434e">arch_moe_aux_none</text>
<rect x="260" y="154" width="576.6" height="22" rx="3" fill="#8a5a83"/>
<text x="844.6" y="170" font-family="Arial,sans-serif" font-size="12" fill="#172b36">2.02</text>
<text x="22" y="202" font-family="Arial,sans-serif" font-size="12" fill="#29434e">arch_moe_aux_strong</text>
<rect x="260" y="186" width="575.6" height="22" rx="3" fill="#b48b36"/>
<text x="843.6" y="202" font-family="Arial,sans-serif" font-size="12" fill="#172b36">2.016</text>
<text x="22" y="234" font-family="Arial,sans-serif" font-size="12" fill="#29434e">arch_moe_aux_weak</text>
<rect x="260" y="218" width="574.5" height="22" rx="3" fill="#276678"/>
<text x="842.5" y="234" font-family="Arial,sans-serif" font-size="12" fill="#172b36">2.013</text>
<text x="22" y="266" font-family="Arial,sans-serif" font-size="12" fill="#29434e">arch_moe_bias</text>
<rect x="260" y="250" width="577.9" height="22" rx="3" fill="#d97745"/>
<text x="845.9" y="266" font-family="Arial,sans-serif" font-size="12" fill="#172b36">2.024</text>
<text x="22" y="298" font-family="Arial,sans-serif" font-size="12" fill="#29434e">arch_moe_coarse</text>
<rect x="260" y="282" width="591.0" height="22" rx="3" fill="#568259"/>
<text x="859.0" y="298" font-family="Arial,sans-serif" font-size="12" fill="#172b36">2.071</text>
<text x="22" y="330" font-family="Arial,sans-serif" font-size="12" fill="#29434e">arch_moe_fine_grained</text>
<rect x="260" y="314" width="594.0" height="22" rx="3" fill="#8a5a83"/>
<text x="862.0" y="330" font-family="Arial,sans-serif" font-size="12" fill="#172b36">2.081</text>
<text x="22" y="362" font-family="Arial,sans-serif" font-size="12" fill="#29434e">arch_moe_shared</text>
<rect x="260" y="346" width="582.0" height="22" rx="3" fill="#b48b36"/>
<text x="850.0" y="362" font-family="Arial,sans-serif" font-size="12" fill="#172b36">2.039</text>
<text x="22" y="394" font-family="Arial,sans-serif" font-size="12" fill="#29434e">arch_v2_attention_control</text>
<rect x="260" y="378" width="573.6" height="22" rx="3" fill="#276678"/>
<text x="841.6" y="394" font-family="Arial,sans-serif" font-size="12" fill="#172b36">2.009</text>
<text x="22" y="426" font-family="Arial,sans-serif" font-size="12" fill="#29434e">arch_v2_low_rank_control</text>
<rect x="260" y="410" width="573.6" height="22" rx="3" fill="#d97745"/>
<text x="841.6" y="426" font-family="Arial,sans-serif" font-size="12" fill="#172b36">2.009</text>
<text x="22" y="458" font-family="Arial,sans-serif" font-size="12" fill="#29434e">arch_v2_low_rank_kv</text>
<rect x="260" y="442" width="625.2" height="22" rx="3" fill="#568259"/>
<text x="893.2" y="458" font-family="Arial,sans-serif" font-size="12" fill="#172b36">2.19</text>
<text x="22" y="490" font-family="Arial,sans-serif" font-size="12" fill="#29434e">arch_v2_mla</text>
<rect x="260" y="474" width="626.2" height="22" rx="3" fill="#8a5a83"/>
<text x="894.2" y="490" font-family="Arial,sans-serif" font-size="12" fill="#172b36">2.194</text>
<text x="22" y="522" font-family="Arial,sans-serif" font-size="12" fill="#29434e">arch_v3_mtp</text>
<rect x="260" y="506" width="626.8" height="22" rx="3" fill="#b48b36"/>
<text x="894.8" y="522" font-family="Arial,sans-serif" font-size="12" fill="#172b36">2.196</text>
<text x="22" y="554" font-family="Arial,sans-serif" font-size="12" fill="#29434e">arch_v3_no_mtp</text>
<rect x="260" y="538" width="630.0" height="22" rx="3" fill="#276678"/>
<text x="898.0" y="554" font-family="Arial,sans-serif" font-size="12" fill="#172b36">2.207</text>
</svg>
