<svg xmlns="http://www.w3.org/2000/svg" width="1040" height="386" viewBox="0 0 1040 386">
<rect width="100%" height="100%" fill="#ffffff"/>
<text x="22" y="32" font-family="Arial,sans-serif" font-size="21" font-weight="700" fill="#172b36">Formal validation loss</text>
<text x="22" y="74" font-family="Arial,sans-serif" font-size="12" fill="#29434e">formal_base20m</text>
<rect x="260" y="58" width="493.8" height="22" rx="3" fill="#276678"/>
<text x="761.8" y="74" font-family="Arial,sans-serif" font-size="12" fill="#172b36">0.5428</text>
<text x="22" y="106" font-family="Arial,sans-serif" font-size="12" fill="#29434e">formal_dense115_30m</text>
<rect x="260" y="90" width="417.6" height="22" rx="3" fill="#d97745"/>
<text x="685.6" y="106" font-family="Arial,sans-serif" font-size="12" fill="#172b36">0.4591</text>
<text x="22" y="138" font-family="Arial,sans-serif" font-size="12" fill="#29434e">formal_dense35_50m</text>
<rect x="260" y="122" width="438.7" height="22" rx="3" fill="#568259"/>
<text x="706.7" y="138" font-family="Arial,sans-serif" font-size="12" fill="#172b36">0.4822</text>
<text x="22" y="170" font-family="Arial,sans-serif" font-size="12" fill="#29434e">formal_moe35_30m</text>
<rect x="260" y="154" width="415.4" height="22" rx="3" fill="#8a5a83"/>
<text x="683.4" y="170" font-family="Arial,sans-serif" font-size="12" fill="#172b36">0.4567</text>
<text x="22" y="202" font-family="Arial,sans-serif" font-size="12" fill="#29434e">formal_reasoning_sft</text>
<rect x="260" y="186" width="37.0" height="22" rx="3" fill="#b48b36"/>
<text x="305.0" y="202" font-family="Arial,sans-serif" font-size="12" fill="#172b36">0.04063</text>
<text x="22" y="234" font-family="Arial,sans-serif" font-size="12" fill="#29434e">formal_sweep_bs16_lr3e-4</text>
<rect x="260" y="218" width="591.9" height="22" rx="3" fill="#276678"/>
<text x="859.9" y="234" font-family="Arial,sans-serif" font-size="12" fill="#172b36">0.6507</text>
<text x="22" y="266" font-family="Arial,sans-serif" font-size="12" fill="#29434e">formal_sweep_bs16_lr6e-4</text>
<rect x="260" y="250" width="589.0" height="22" rx="3" fill="#d97745"/>
<text x="857.0" y="266" font-family="Arial,sans-serif" font-size="12" fill="#172b36">0.6475</text>
<text x="22" y="298" font-family="Arial,sans-serif" font-size="12" fill="#29434e">formal_sweep_bs32_lr3e-4</text>
<rect x="260" y="282" width="630.0" height="22" rx="3" fill="#568259"/>
<text x="898.0" y="298" font-family="Arial,sans-serif" font-size="12" fill="#172b36">0.6926</text>
<text x="22" y="330" font-family="Arial,sans-serif" font-size="12" fill="#29434e">formal_sweep_bs32_lr6e-4</text>
<rect x="260" y="314" width="620.3" height="22" rx="3" fill="#8a5a83"/>
<text x="888.3" y="330" font-family="Arial,sans-serif" font-size="12" fill="#172b36">0.6819</text>
</svg>
