<svg xmlns="http://www.w3.org/2000/svg" width="1040" height="354" viewBox="0 0 1040 354">
<rect width="100%" height="100%" fill="#ffffff"/>
<text x="22" y="32" font-family="Arial,sans-serif" font-size="21" font-weight="700" fill="#172b36">Post-training reasoning metrics</text>
<text x="22" y="74" font-family="Arial,sans-serif" font-size="12" fill="#29434e">formal_base20m answer</text>
<rect x="260" y="58" width="0.0" height="22" rx="3" fill="#276678"/>
<text x="268.0" y="74" font-family="Arial,sans-serif" font-size="12" fill="#172b36">0</text>
<text x="22" y="106" font-family="Arial,sans-serif" font-size="12" fill="#29434e">formal_base20m format</text>
<rect x="260" y="90" width="0.0" height="22" rx="3" fill="#d97745"/>
<text x="268.0" y="106" font-family="Arial,sans-serif" font-size="12" fill="#172b36">0</text>
<text x="22" y="138" font-family="Arial,sans-serif" font-size="12" fill="#29434e">formal_direct_grpo answer</text>
<rect x="260" y="122" width="0.0" height="22" rx="3" fill="#568259"/>
<text x="268.0" y="138" font-family="Arial,sans-serif" font-size="12" fill="#172b36">0</text>
<text x="22" y="170" font-family="Arial,sans-serif" font-size="12" fill="#29434e">formal_direct_grpo format</text>
<rect x="260" y="154" width="0.0" height="22" rx="3" fill="#8a5a83"/>
<text x="268.0" y="170" font-family="Arial,sans-serif" font-size="12" fill="#172b36">0</text>
<text x="22" y="202" font-family="Arial,sans-serif" font-size="12" fill="#29434e">formal_reasoning_grpo answer</text>
<rect x="260" y="186" width="0.0" height="22" rx="3" fill="#b48b36"/>
<text x="268.0" y="202" font-family="Arial,sans-serif" font-size="12" fill="#172b36">0</text>
<text x="22" y="234" font-family="Arial,sans-serif" font-size="12" fill="#29434e">formal_reasoning_grpo format</text>
<rect x="260" y="218" width="210.0" height="22" rx="3" fill="#276678"/>
<text x="478.0" y="234" font-family="Arial,sans-serif" font-size="12" fill="#172b36">0.2</text>
<text x="22" y="266" font-family="Arial,sans-serif" font-size="12" fill="#29434e">formal_reasoning_sft answer</text>
<rect x="260" y="250" width="0.0" height="22" rx="3" fill="#d97745"/>
<text x="268.0" y="266" font-family="Arial,sans-serif" font-size="12" fill="#172b36">0</text>
<text x="22" y="298" font-family="Arial,sans-serif" font-size="12" fill="#29434e">formal_reasoning_sft format</text>
<rect x="260" y="282" width="630.0" height="22" rx="3" fill="#568259"/>
<text x="898.0" y="298" font-family="Arial,sans-serif" font-size="12" fill="#172b36">0.6</text>
</svg>
